<svg width="143" height="30" viewBox="0 0 143 30" fill="none" xmlns="http://www.w3.org/2000/svg">
<g clip-path="url(#clip0_971_2834)">
<path d="M55.9361 5.64165C58.7649 5.64165 60.9737 6.41385 62.5625 7.95825C64.1512 9.51552 64.9456 11.7163 64.9456 14.5606C64.9456 17.4048 64.1512 19.6056 62.5625 21.1629C60.9737 22.7073 58.7649 23.4795 55.9361 23.4795H50.1623V5.64165H55.9361ZM56.1686 21.4525C58.2095 21.4525 59.8047 20.8411 60.9543 19.6185C62.1039 18.4087 62.6787 16.7227 62.6787 14.5606C62.6787 12.3984 62.1039 10.706 60.9543 9.48335C59.8047 8.27356 58.2095 7.66867 56.1686 7.66867H52.3323V21.4525H56.1686ZM80.9496 16.0277C80.9496 16.5297 80.9173 17.0316 80.8527 17.5335H70.6226C70.7517 18.8978 71.2038 19.9595 71.9788 20.7189C72.7668 21.4782 73.7872 21.8579 75.0401 21.8579C76.0347 21.8579 76.8614 21.6841 77.5202 21.3366C78.1789 21.002 78.6245 20.5065 78.8571 19.8501L80.6783 20.7961C80.1358 21.7613 79.4125 22.4949 78.5083 22.9969C77.6041 23.4988 76.4481 23.7498 75.0401 23.7498C72.9993 23.7498 71.3976 23.1256 70.2351 21.8772C69.0596 20.6416 68.4719 18.9235 68.4719 16.7227C68.4719 14.522 69.0273 12.8038 70.1382 11.5683C71.249 10.3199 72.8314 9.6957 74.8851 9.6957C76.151 9.6957 77.2424 9.97241 78.1595 10.5258C79.0766 11.0921 79.7741 11.8514 80.2521 12.8038C80.7171 13.7562 80.9496 14.8308 80.9496 16.0277ZM74.8851 11.5876C73.6839 11.5876 72.7151 11.9415 71.9788 12.6494C71.2555 13.3443 70.8099 14.3353 70.6419 15.6223H78.8571C78.715 14.3611 78.3016 13.3701 77.617 12.6494C76.9324 11.9415 76.0218 11.5876 74.8851 11.5876ZM93.6791 9.96597H95.946L90.3078 23.4795H88.1378L82.4996 9.96597H84.9603L89.2616 21.298L93.6791 9.96597ZM105.479 9.6957C107.377 9.6957 108.882 10.3199 109.993 11.5683C111.104 12.8295 111.659 14.5477 111.659 16.7227C111.659 18.8978 111.104 20.6159 109.993 21.8772C108.882 23.1256 107.377 23.7498 105.479 23.7498C104.432 23.7498 103.496 23.5117 102.669 23.0355C101.843 22.5593 101.229 21.9222 100.829 21.1243L100.693 23.4795H98.7942V3.74976H100.964V12.0702C101.403 11.3495 102.017 10.7768 102.805 10.3521C103.593 9.91449 104.484 9.6957 105.479 9.6957ZM105.227 21.8579C106.544 21.8579 107.584 21.3945 108.346 20.4679C109.108 19.5413 109.489 18.2929 109.489 16.7227C109.489 15.1526 109.108 13.9042 108.346 12.9776C107.584 12.0509 106.544 11.5876 105.227 11.5876C103.922 11.5876 102.889 12.038 102.127 12.9389C101.352 13.8398 100.964 15.0496 100.964 16.5683V16.8772C100.964 18.3958 101.352 19.6056 102.127 20.5065C102.889 21.4074 103.922 21.8579 105.227 21.8579ZM121.618 9.6957C123.659 9.6957 125.261 10.3199 126.423 11.5683C127.599 12.8038 128.186 14.522 128.186 16.7227C128.186 18.9235 127.599 20.6416 126.423 21.8772C125.261 23.1256 123.659 23.7498 121.618 23.7498C119.577 23.7498 117.969 23.1256 116.794 21.8772C115.631 20.6416 115.05 18.9235 115.05 16.7227C115.05 14.522 115.631 12.8038 116.794 11.5683C117.969 10.3199 119.577 9.6957 121.618 9.6957ZM121.618 11.5683C120.236 11.5683 119.158 12.0252 118.383 12.9389C117.608 13.8527 117.22 15.114 117.22 16.7227C117.22 18.3315 117.608 19.5927 118.383 20.5065C119.158 21.4203 120.236 21.8772 121.618 21.8772C122.987 21.8772 124.06 21.4203 124.835 20.5065C125.622 19.5927 126.016 18.3315 126.016 16.7227C126.016 15.114 125.622 13.8527 124.835 12.9389C124.06 12.0252 122.987 11.5683 121.618 11.5683ZM142.854 23.4795H140.199L136.46 18.2671L132.604 23.4795H130.085L135.278 16.6648L130.395 9.96597H133.108L136.692 14.966L140.218 9.96597H142.776L137.855 16.5876L142.854 23.4795Z" fill="url(#paint0_linear_971_2834)"/>
<path d="M19.2838 17.6898L19.2547 17.6759V30.0184L19.2838 30.0311V17.6898Z" fill="url(#paint1_linear_971_2834)"/>
<g filter="url(#filter0_b_971_2834)">
<path d="M0.0569 8.90928V21.4966L19.2548 30.0185V17.676L0.0569 8.90928ZM38.7506 8.90928L19.5524 17.676V30.0185L38.7506 21.4966V8.90928ZM38.7506 8.56577L19.5233 0.031189V12.3725L24.985 14.867L38.7506 8.58004V8.56577ZM19.2838 0.031189L0.0569 8.56577V8.58004L13.823 14.867L19.2838 12.3725V0.031189Z" fill="url(#paint2_linear_971_2834)"/>
</g>
</g>
<defs>
<filter id="filter0_b_971_2834" x="-9.9431" y="-9.96881" width="58.6937" height="49.9873" filterUnits="userSpaceOnUse" color-interpolation-filters="sRGB">
<feFlood flood-opacity="0" result="BackgroundImageFix"/>
<feGaussianBlur in="BackgroundImageFix" stdDeviation="5"/>
<feComposite in2="SourceAlpha" operator="in" result="effect1_backgroundBlur_971_2834"/>
<feBlend mode="normal" in="SourceGraphic" in2="effect1_backgroundBlur_971_2834" result="shape"/>
</filter>
<linearGradient id="paint0_linear_971_2834" x1="-53.5" y1="-46" x2="150.5" y2="43.5" gradientUnits="userSpaceOnUse">
<stop offset="0.113978" stop-color="#E54EFE"/>
<stop offset="1" stop-color="#2ECBA5"/>
</linearGradient>
<linearGradient id="paint1_linear_971_2834" x1="8.13964" y1="23.706" x2="8.16593" y2="23.7183" gradientUnits="userSpaceOnUse">
<stop stop-color="#0A3732"/>
<stop offset="1" stop-color="#55C388"/>
</linearGradient>
<linearGradient id="paint2_linear_971_2834" x1="-43.2167" y1="-74.5618" x2="56.8412" y2="-62.3399" gradientUnits="userSpaceOnUse">
<stop offset="0.113978" stop-color="#E54EFE"/>
<stop offset="1" stop-color="#2ECBA5"/>
</linearGradient>
<clipPath id="clip0_971_2834">
<rect width="143" height="30" fill="white"/>
</clipPath>
</defs>
</svg>
