<svg width="593" height="134" viewBox="0 0 593 134" fill="none" xmlns="http://www.w3.org/2000/svg">
<path d="M8.4375 130.909L23.3949 89.0412H80.2841L95.2415 130.909H103.679L56.4418 0H47.2372L0 130.909H8.4375ZM26.0156 81.6264L51.5199 10.2912H52.1591L77.6634 81.6264H26.0156Z" fill="#E6E6E6"/>
<path d="M184.826 32.7273H176.452L145.259 120.874H144.62L113.427 32.7273H105.053L140.529 130.909H149.35L184.826 32.7273Z" fill="#E6E6E6"/>
<path d="M232.223 133.018C247.82 133.018 258.814 124.197 263.928 113.203H264.503V130.909H272.301V62.3224C272.301 40.8452 256.321 31.2571 238.871 31.2571C223.722 31.2571 209.531 38.0966 203.906 52.223L211.257 54.9716C215.092 45.2557 225.064 38.4162 239.062 38.4162C254.915 38.4162 264.503 47.5568 264.503 61.8111V65.902C264.503 73.4446 253.509 74.2116 238.551 76.0014C212.344 79.1974 201.094 87.5071 201.094 103.871C201.094 122.536 215.284 133.018 232.223 133.018ZM232.99 125.795C219.247 125.795 208.892 117.55 208.892 104.126C208.892 91.9815 217.841 85.4616 239.318 82.9048C248.906 81.8182 260.412 80.0284 264.503 76.6406V91.0867C264.503 111.03 251.399 125.795 232.99 125.795Z" fill="#E6E6E6"/>
<path d="M339.705 32.7273H319.059V9.20455H311.325V32.7273H296.815V39.6946H311.325V109.112C311.325 124.006 322.894 132.507 335.167 132.507C339.13 132.507 341.815 131.804 344.244 130.909L342.326 123.814C340.408 124.453 338.491 124.964 335.678 124.964C326.985 124.964 319.059 119.595 319.059 107.706V39.6946H339.705V32.7273Z" fill="#E6E6E6"/>
<path d="M394.645 133.018C410.241 133.018 421.236 124.197 426.349 113.203H426.925V130.909H434.723V62.3224C434.723 40.8452 418.743 31.2571 401.293 31.2571C386.143 31.2571 371.953 38.0966 366.328 52.223L373.679 54.9716C377.514 45.2557 387.486 38.4162 401.484 38.4162C417.337 38.4162 426.925 47.5568 426.925 61.8111V65.902C426.925 73.4446 415.93 74.2116 400.973 76.0014C374.766 79.1974 363.516 87.5071 363.516 103.871C363.516 122.536 377.706 133.018 394.645 133.018ZM395.412 125.795C381.669 125.795 371.314 117.55 371.314 104.126C371.314 91.9815 380.263 85.4616 401.74 82.9048C411.328 81.8182 422.834 80.0284 426.925 76.6406V91.0867C426.925 111.03 413.821 125.795 395.412 125.795Z" fill="#E6E6E6"/>
<path d="M467.418 130.909H475.217V66.2216C475.217 50.3693 487.042 38.9276 503.406 38.9276C505.451 38.9276 506.793 39.1832 507.816 39.3111V31.4489C506.602 31.3849 505.259 31.3849 503.853 31.3849C490.877 31.3849 479.947 38.0327 475.728 48.0682H475.025V32.7273H467.418V130.909Z" fill="#E6E6E6"/>
<path d="M591.152 53.8849C586.422 39.4389 576.067 31.2571 559.448 31.2571C540.655 31.2571 527.168 42.1236 527.168 57.9759C527.168 70.6321 535.158 79.5171 551.202 83.4162L566.863 87.2514C578.56 90.1278 584.377 96.456 584.377 105.533C584.377 117.422 573.638 125.795 557.594 125.795C543.084 125.795 534.071 119.02 531.259 106.172L523.78 108.089C527.168 124.07 539.377 132.955 557.658 132.955C578.113 132.955 592.303 121.577 592.303 105.277C592.303 92.6207 584.377 83.8636 568.908 80.0284L553.823 76.2571C541.039 73.125 534.902 67.0526 534.902 57.7202C534.902 46.2145 545.002 38.3523 559.448 38.3523C572.871 38.3523 580.35 45.0639 583.929 55.8026L591.152 53.8849Z" fill="#E6E6E6"/>
</svg>
