<svg width="600" height="135" viewBox="0 0 600 135" fill="none" xmlns="http://www.w3.org/2000/svg">
<path d="M76.8963 34.7088H84.7585C83.6719 14.6378 67.5 0 44.1051 0C20.8381 0 3.25994 14.5099 3.25994 34.7088C3.25994 50.6889 14.2543 61.2358 34.7727 67.5L50.0497 72.1023C68.7784 77.7912 78.6861 85.0781 78.6861 98.821C78.6861 115.952 64.0483 127.521 42.9545 127.521C23.3949 127.521 9.46023 117.422 8.18182 101.186H0C1.40625 121.193 17.642 135 42.9545 135C69.5455 135 86.5483 119.659 86.5483 98.8849C86.5483 79.9645 71.8466 70.5682 52.2869 64.6875L37.9688 60.4688C22.1804 55.7386 11.1222 48.0043 11.1222 34.4531C11.1222 18.7926 24.8011 7.41477 43.9134 7.41477C62.706 7.41477 75.554 18.473 76.8963 34.7088Z" fill="#E6E6E6"/>
<path d="M151.875 134.936C176.165 134.936 193.807 113.587 193.807 84.1193C193.807 54.652 176.101 33.2386 151.875 33.2386C127.585 33.2386 109.943 54.5881 109.943 84.1193C109.943 113.587 127.585 134.936 151.875 134.936ZM151.875 127.713C131.229 127.713 117.678 108.473 117.678 84.1193C117.678 59.8935 131.357 40.5256 151.875 40.5256C172.457 40.5256 186.072 59.8295 186.072 84.1193C186.072 108.473 172.521 127.713 151.875 127.713Z" fill="#E6E6E6"/>
<path d="M283.567 98.054C283.567 115.568 270.527 126.562 255.186 126.562C239.462 126.562 228.468 115.504 228.468 99.1406V34.7088H220.669V99.4602C220.669 120.938 234.348 134.169 253.588 134.169C267.587 134.169 278.326 127.074 282.928 116.974H283.567V132.891H291.365V34.7088H283.567V98.054Z" fill="#E6E6E6"/>
<path d="M331.475 69.2259C331.475 52.0952 343.365 40.6534 359.728 40.6534C376.028 40.6534 386.831 51.7116 386.831 68.4588V132.891H394.629V68.1392C394.629 46.6619 380.95 33.4304 361.199 33.4304C347.2 33.4304 336.653 40.0781 332.051 50.2415H331.284V34.7088H323.677V132.891H331.475V69.2259Z" fill="#E6E6E6"/>
<path d="M460.723 134.936C477.534 134.936 487.761 124.134 492.427 111.477H493.386V132.891H500.929V1.98153H493.194V56.6335H492.427C487.889 43.9773 477.598 33.2386 460.787 33.2386C437.2 33.2386 421.603 54.4602 421.603 84.0554C421.603 113.778 437.008 134.936 460.723 134.936ZM461.426 127.713C441.227 127.713 429.338 108.665 429.338 83.9915C429.338 59.3182 441.227 40.5256 461.426 40.5256C481.369 40.5256 493.258 58.9347 493.258 83.9915C493.258 109.112 481.369 127.713 461.426 127.713Z" fill="#E6E6E6"/>
<path d="M598.407 55.8665C593.677 41.4205 583.322 33.2386 566.703 33.2386C547.91 33.2386 534.423 44.1051 534.423 59.9574C534.423 72.6136 542.413 81.4986 558.457 85.3977L574.118 89.233C585.815 92.1094 591.632 98.4375 591.632 107.514C591.632 119.403 580.893 127.777 564.849 127.777C550.339 127.777 541.326 121.001 538.514 108.153L531.035 110.071C534.423 126.051 546.632 134.936 564.913 134.936C585.368 134.936 599.558 123.558 599.558 107.259C599.558 94.6023 591.632 85.8452 576.163 82.0099L561.078 78.2386C548.294 75.1065 542.157 69.0341 542.157 59.7017C542.157 48.196 552.257 40.3338 566.703 40.3338C580.126 40.3338 587.605 47.0455 591.184 57.7841L598.407 55.8665Z" fill="#E6E6E6"/>
</svg>
