<svg width="480" height="170" viewBox="0 0 480 170" fill="none" xmlns="http://www.w3.org/2000/svg">
<path d="M0 130.909H71.9105V123.494H7.99006V0H0V130.909Z" fill="#E6E6E6"/>
<path d="M135 132.955C159.29 132.955 176.932 111.605 176.932 82.1378C176.932 52.6705 159.226 31.2571 135 31.2571C110.71 31.2571 93.0682 52.6065 93.0682 82.1378C93.0682 111.605 110.71 132.955 135 132.955ZM135 125.732C114.354 125.732 100.803 106.491 100.803 82.1378C100.803 57.9119 114.482 38.544 135 38.544C155.582 38.544 169.197 57.848 169.197 82.1378C169.197 106.491 155.646 125.732 135 125.732Z" fill="#E6E6E6"/>
<path d="M239.206 169.773C262.154 169.773 277.686 157.82 277.686 133.21V32.7273H270.144V54.652H269.249C264.583 41.9957 254.547 31.2571 237.544 31.2571C213.766 31.2571 198.361 52.3509 198.361 81.8182C198.361 111.286 214.213 130.398 237.48 130.398C253.588 130.398 264.647 121.193 269.185 108.473H269.952V132.891C269.952 153.026 258.127 162.614 239.206 162.614C223.418 162.614 213.446 155.774 209.164 146.25L202.644 150.085C208.013 162.23 220.861 169.773 239.206 169.773ZM238.184 123.175C218.049 123.175 206.096 106.3 206.096 81.7543C206.096 57.3367 217.857 38.544 238.184 38.544C258.191 38.544 270.016 56.9531 270.016 81.7543C270.016 107.322 257.871 123.175 238.184 123.175Z" fill="#E6E6E6"/>
<path d="M346.992 132.955C371.282 132.955 388.924 111.605 388.924 82.1378C388.924 52.6705 371.218 31.2571 346.992 31.2571C322.702 31.2571 305.06 52.6065 305.06 82.1378C305.06 111.605 322.702 132.955 346.992 132.955ZM346.992 125.732C326.346 125.732 312.795 106.491 312.795 82.1378C312.795 57.9119 326.474 38.544 346.992 38.544C367.575 38.544 381.19 57.848 381.19 82.1378C381.19 106.491 367.638 125.732 346.992 125.732Z" fill="#E6E6E6"/>
<path d="M478.173 53.8849C473.443 39.4389 463.088 31.2571 446.468 31.2571C427.676 31.2571 414.189 42.1236 414.189 57.9759C414.189 70.6321 422.179 79.5171 438.223 83.4162L453.883 87.2514C465.581 90.1278 471.397 96.456 471.397 105.533C471.397 117.422 460.659 125.795 444.615 125.795C430.105 125.795 421.092 119.02 418.279 106.172L410.801 108.089C414.189 124.07 426.397 132.955 444.679 132.955C465.133 132.955 479.324 121.577 479.324 105.277C479.324 92.6207 471.397 83.8636 455.929 80.0284L440.843 76.2571C428.059 73.125 421.923 67.0526 421.923 57.7202C421.923 46.2145 432.022 38.3523 446.468 38.3523C459.892 38.3523 467.37 45.0639 470.95 55.8026L478.173 53.8849Z" fill="#E6E6E6"/>
</svg>
