<svg width="549" height="133" viewBox="0 0 549 133" fill="none" xmlns="http://www.w3.org/2000/svg">
<path d="M8.4375 0H0L47.2372 130.909H56.4418L103.679 0H95.2415L52.2869 120.618H51.392L8.4375 0Z" fill="#E6E6E6"/>
<path d="M125.732 130.909H133.466V32.7273H125.732V130.909ZM129.631 15.3409C133.082 15.3409 135.895 12.5923 135.895 9.20455C135.895 5.81676 133.082 3.06818 129.631 3.06818C126.179 3.06818 123.303 5.81676 123.303 9.20455C123.303 12.5923 126.179 15.3409 129.631 15.3409Z" fill="#E6E6E6"/>
<path d="M199.815 132.955C216.626 132.955 226.854 122.152 231.52 109.496H232.479V130.909H240.021V0H232.287V54.652H231.52C226.982 41.9957 216.69 31.2571 199.879 31.2571C176.293 31.2571 160.696 52.4787 160.696 82.0739C160.696 111.797 176.101 132.955 199.815 132.955ZM200.518 125.732C180.32 125.732 168.43 106.683 168.43 82.0099C168.43 57.3367 180.32 38.544 200.518 38.544C220.462 38.544 232.351 56.9531 232.351 82.0099C232.351 107.131 220.462 125.732 200.518 125.732Z" fill="#E6E6E6"/>
<path d="M313.402 132.955C332.77 132.955 344.659 121.641 349.134 111.733L342.038 108.857C338.395 116.143 329.382 125.732 313.402 125.732C291.094 125.732 277.734 107.706 277.415 83.544H352.33V78.6861C352.33 49.5383 333.537 31.2571 311.548 31.2571C287.195 31.2571 269.68 52.9261 269.68 82.2656C269.68 111.541 286.747 132.955 313.402 132.955ZM277.543 76.4489C279.077 55.0355 292.947 38.544 311.548 38.544C330.213 38.544 344.531 55.1634 344.531 76.4489H277.543Z" fill="#E6E6E6"/>
<path d="M415.675 132.955C439.964 132.955 457.607 111.605 457.607 82.1378C457.607 52.6705 439.901 31.2571 415.675 31.2571C391.385 31.2571 373.743 52.6065 373.743 82.1378C373.743 111.605 391.385 132.955 415.675 132.955ZM415.675 125.732C395.028 125.732 381.477 106.491 381.477 82.1378C381.477 57.9119 395.156 38.544 415.675 38.544C436.257 38.544 449.872 57.848 449.872 82.1378C449.872 106.491 436.321 125.732 415.675 125.732Z" fill="#E6E6E6"/>
<path d="M546.855 53.8849C542.125 39.4389 531.77 31.2571 515.151 31.2571C496.358 31.2571 482.871 42.1236 482.871 57.9759C482.871 70.6321 490.861 79.5171 506.905 83.4162L522.566 87.2514C534.263 90.1278 540.08 96.456 540.08 105.533C540.08 117.422 529.341 125.795 513.297 125.795C498.787 125.795 489.775 119.02 486.962 106.172L479.483 108.089C482.871 124.07 495.08 132.955 513.361 132.955C533.816 132.955 548.006 121.577 548.006 105.277C548.006 92.6207 540.08 83.8636 524.611 80.0284L509.526 76.2571C496.742 73.125 490.605 67.0526 490.605 57.7202C490.605 46.2145 500.705 38.3523 515.151 38.3523C528.574 38.3523 536.053 45.0639 539.632 55.8026L546.855 53.8849Z" fill="#E6E6E6"/>
</svg>
