<svg width="569" height="170" viewBox="0 0 569 170" fill="none" xmlns="http://www.w3.org/2000/svg">
<path d="M7.99006 0H0V130.909H7.99006V0Z" fill="#E6E6E6"/>
<path d="M43.1303 130.909H50.9286V66.4773C50.9286 50.2415 60.7085 38.6719 76.2411 38.6719C91.646 38.6719 99.2525 49.2187 99.2525 64.4957V130.909H107.051V65.6463C107.051 49.9858 116 38.6719 132.235 38.6719C147.385 38.6719 155.375 48.5795 155.375 65.0071V130.909H163.173V65.0071C163.173 44.233 152.882 31.4489 133.897 31.4489C119.324 31.4489 109.032 38.8636 105.197 50.4332H104.494C100.659 38.7997 92.0295 31.4489 77.8391 31.4489C64.8633 31.4489 55.2752 37.7131 51.5039 47.5568H50.7369V32.7273H43.1303V130.909Z" fill="#E6E6E6"/>
<path d="M221.548 133.018C237.145 133.018 248.139 124.197 253.253 113.203H253.828V130.909H261.626V62.3224C261.626 40.8452 245.646 31.2571 228.196 31.2571C213.047 31.2571 198.857 38.0966 193.232 52.223L200.582 54.9716C204.418 45.2557 214.389 38.4162 228.388 38.4162C244.24 38.4162 253.828 47.5568 253.828 61.8111V65.902C253.828 73.4446 242.834 74.2116 227.876 76.0014C201.669 79.1974 190.419 87.5071 190.419 103.871C190.419 122.536 204.609 133.018 221.548 133.018ZM222.315 125.795C208.572 125.795 198.217 117.55 198.217 104.126C198.217 91.9815 207.166 85.4616 228.643 82.9048C238.232 81.8182 249.737 80.0284 253.828 76.6406V91.0867C253.828 111.03 240.724 125.795 222.315 125.795Z" fill="#E6E6E6"/>
<path d="M329.734 169.773C352.681 169.773 368.214 157.82 368.214 133.21V32.7273H360.671V54.652H359.776C355.11 41.9957 345.075 31.2571 328.072 31.2571C304.293 31.2571 288.888 52.3509 288.888 81.8182C288.888 111.286 304.741 130.398 328.008 130.398C344.116 130.398 355.174 121.193 359.712 108.473H360.479V132.891C360.479 153.026 348.654 162.614 329.734 162.614C313.945 162.614 303.974 155.774 299.691 146.25L293.171 150.085C298.54 162.23 311.389 169.773 329.734 169.773ZM328.711 123.175C308.576 123.175 296.623 106.3 296.623 81.7543C296.623 57.3367 308.384 38.544 328.711 38.544C348.718 38.544 360.543 56.9531 360.543 81.7543C360.543 107.322 348.398 123.175 328.711 123.175Z" fill="#E6E6E6"/>
<path d="M439.309 132.955C458.677 132.955 470.566 121.641 475.041 111.733L467.946 108.857C464.302 116.143 455.289 125.732 439.309 125.732C417.001 125.732 403.642 107.706 403.322 83.544H478.237V78.6861C478.237 49.5383 459.444 31.2571 437.456 31.2571C413.102 31.2571 395.588 52.9261 395.588 82.2656C395.588 111.541 412.654 132.955 439.309 132.955ZM403.45 76.4489C404.984 55.0355 418.855 38.544 437.456 38.544C456.12 38.544 470.439 55.1634 470.439 76.4489H403.45Z" fill="#E6E6E6"/>
<path d="M567.47 53.8849C562.74 39.4389 552.385 31.2571 535.765 31.2571C516.973 31.2571 503.485 42.1236 503.485 57.9759C503.485 70.6321 511.475 79.5171 527.52 83.4162L543.18 87.2514C554.877 90.1278 560.694 96.456 560.694 105.533C560.694 117.422 549.956 125.795 533.912 125.795C519.402 125.795 510.389 119.02 507.576 106.172L500.098 108.089C503.485 124.07 515.694 132.955 533.976 132.955C554.43 132.955 568.62 121.577 568.62 105.277C568.62 92.6207 560.694 83.8636 545.226 80.0284L530.14 76.2571C517.356 73.125 511.22 67.0526 511.22 57.7202C511.22 46.2145 521.319 38.3523 535.765 38.3523C549.189 38.3523 556.667 45.0639 560.247 55.8026L567.47 53.8849Z" fill="#E6E6E6"/>
</svg>
