<svg width="64" height="64" viewBox="0 0 64 64" fill="none" xmlns="http://www.w3.org/2000/svg">
<circle opacity="0.7" cx="32" cy="32" r="32" fill="#26A69A"/>
<path d="M28.02 39.8996H25.42C23.58 39.8996 22.5 38.8396 22.5 37.0596V26.9396C22.5 25.1596 23.6 24.0996 25.42 24.0996H28C29.84 24.0996 30.92 25.1596 30.92 26.9396V37.0596C30.94 38.8396 29.84 39.8996 28.02 39.8996ZM25.5 36.8996H27.94V27.0996H25.52L25.5 36.8996Z" fill="#FAFAFA"/>
<path d="M38.582 39.8996H36.002C34.162 39.8996 33.082 38.8396 33.082 37.0596V26.9396C33.082 25.1596 34.182 24.0996 36.002 24.0996H38.582C40.422 24.0996 41.502 25.1596 41.502 26.9396V37.0596C41.502 38.8396 40.402 39.8996 38.582 39.8996ZM36.062 36.8996H38.502V27.0996H36.082L36.062 36.8996Z" fill="#FAFAFA"/>
</svg>
