<?xml version="1.0" encoding="utf-8"?>
<!-- Generator: Adobe Illustrator 24.1.1, SVG Export Plug-In . SVG Version: 6.00 Build 0)  -->
<svg version="1.1" id="Layer_1" xmlns="http://www.w3.org/2000/svg" xmlns:xlink="http://www.w3.org/1999/xlink" x="0px" y="0px"
	 viewBox="0 0 32 32" style="enable-background:new 0 0 32 32;" xml:space="preserve">
<path d="M31.6,0.4C31.4,0.1,31,0,30.7,0c-0.4,0-0.7,0.1-0.9,0.4L16,14.1L2.3,0.4C2,0.1,1.7,0,1.3,0C1,0,0.6,0.1,0.4,0.4
	C0.1,0.6,0,1,0,1.3C0,1.7,0.1,2,0.4,2.3L14.1,16L0.4,29.7C0.1,30,0,30.3,0,30.7c0,0.4,0.1,0.7,0.4,0.9C0.6,31.9,1,32,1.3,32
	c0.4,0,0.7-0.1,0.9-0.4L16,17.9l13.7,13.7c0.3,0.2,0.6,0.4,0.9,0.4c0.4,0,0.7-0.1,0.9-0.4c0.3-0.3,0.4-0.6,0.4-0.9
	c0-0.4-0.1-0.7-0.4-0.9L17.9,16L31.6,2.3C31.9,2,32,1.7,32,1.3C32,1,31.9,0.6,31.6,0.4z"/>
</svg>
