<?xml version="1.0" encoding="utf-8"?>
<svg version="1.1" id="Layer_1" xmlns="http://www.w3.org/2000/svg" xmlns:xlink="http://www.w3.org/1999/xlink" x="0px" y="0px"
	 viewBox="0 0 64 64" style="enable-background:new 0 0 64 64;" xml:space="preserve">
<style type="text/css">
	.st0{clip-path:url(#SVGID_2_);fill:none;}
</style>
<g>
	<defs>
		<path id="SVGID_1_" d="M55.1,19c-1.7-0.8-3.6-0.6-5,0.6l-7.3,5.9v-2.8c0-4.3-3.5-7.8-7.8-7.8H14c-4.3,0-7.8,3.5-7.8,7.8v18.7
			c0,4.3,3.5,7.8,7.8,7.8h21c4.3,0,7.8-3.5,7.8-7.8v-2.8l7.3,5.9c0.9,0.7,1.9,1.1,3,1.1c0.7,0,1.4-0.2,2.1-0.5
			c1.7-0.8,2.7-2.4,2.7-4.3V23.3C57.8,21.4,56.7,19.8,55.1,19z M39.3,41.3c0,2.3-1.9,4.3-4.3,4.3H14c-2.3,0-4.3-1.9-4.3-4.3V22.7
			c0-2.3,1.9-4.3,4.3-4.3h21c2.3,0,4.3,1.9,4.3,4.3V41.3z M54.3,40.7c0,0.7-0.5,1-0.7,1.1c-0.2,0.1-0.8,0.3-1.3-0.2l-9.5-7.6v-4.2
			l9.5-7.6c0.6-0.4,1.1-0.3,1.3-0.2c0.2,0.1,0.7,0.4,0.7,1.1V40.7z"/>
	</defs>
	<use xlink:href="#SVGID_1_"  style="overflow:visible;"/>
	<clipPath id="SVGID_2_">
		<use xlink:href="#SVGID_1_"  style="overflow:visible;"/>
	</clipPath>
	<rect class="st0" width="64" height="64"/>
</g>
</svg>
