<?xml version="1.0" encoding="utf-8"?>
<svg version="1.1" id="Layer_1" xmlns="http://www.w3.org/2000/svg" x="0px" y="0px"
	 viewBox="0 0 64 64" style="enable-background:new 0 0 64 64;" xml:space="preserve">
<path d="M32.4,30.7c-0.1,0-0.1,0-0.2,0c-0.2,0-0.4,0-0.5,0c-0.1,0-0.1,0-0.2,0c-7.3-0.2-13.1-6.2-13.1-13.6
	c0-7.5,6.1-13.6,13.6-13.6s13.6,6.1,13.6,13.6C45.6,24.5,39.8,30.5,32.4,30.7C32.5,30.7,32.4,30.7,32.4,30.7z M32,7.1
	c-5.6,0-10.1,4.5-10.1,10.1c0,5.4,4.2,9.8,9.6,10.1c0.3,0,0.7,0,1,0c5.4-0.2,9.6-4.6,9.6-10.1C42.1,11.6,37.6,7.1,32,7.1z"/>
<path d="M32.4,59.9c-5.2,0-10.4-1.3-14.3-4c-3.6-2.4-5.6-5.7-5.6-9.3c0-3.6,2-6.9,5.6-9.3c0,0,0,0,0,0c7.9-5.3,20.8-5.3,28.6,0
	c3.6,2.4,5.6,5.7,5.6,9.3c0,3.6-2,6.9-5.6,9.3C42.8,58.6,37.6,59.9,32.4,59.9z M20.1,40.3c-2.6,1.8-4.1,4-4.1,6.4
	c0,2.4,1.4,4.6,4.1,6.4c6.7,4.5,18,4.5,24.8,0c2.6-1.8,4.1-4,4.1-6.4c0-2.4-1.4-4.6-4.1-6.4C38.1,35.8,26.8,35.8,20.1,40.3z"/>
</svg>
