<?xml version="1.0" encoding="utf-8"?>
<svg version="1.1" id="Layer_1" xmlns="http://www.w3.org/2000/svg" xmlns:xlink="http://www.w3.org/1999/xlink" x="0px" y="0px"
	 viewBox="0 0 64 64" style="enable-background:new 0 0 64 64;" xml:space="preserve">
<style type="text/css">
	.st0{clip-path:url(#SVGID_3_);}
	.st1{clip-path:url(#SVGID_4_);}
</style>
<g id="Layer_2_1_">
	<g id="Layer_1-2">
		<path d="M33.6,23.3c-0.4-0.9-1.5-1.2-2.4-0.8c-0.3,0.2-0.6,0.4-0.8,0.8l-8.1,16c-0.4,0.9-0.1,1.9,0.8,2.3c0.2,0.1,0.5,0.2,0.8,0.2
			c0.7,0,1.3-0.4,1.6-1l1.5-3h10l1.5,3c0.5,0.9,1.5,1.2,2.4,0.7c0.8-0.4,1.1-1.4,0.8-2.2L33.6,23.3z M28.8,34.3l3.2-6.4l3.3,6.4
			L28.8,34.3z"/>
		<path d="M53.3,20.4c2.4,0,4.4-2,4.4-4.4v-5.3c0-2.4-2-4.4-4.4-4.4H48c-2.4,0-4.4,2-4.4,4.4v0.9H20.4v-0.9c0-2.4-2-4.4-4.4-4.4
			c0,0,0,0,0,0h-5.3c-2.4,0-4.4,2-4.4,4.4c0,0,0,0,0,0V16c0,2.4,2,4.4,4.4,4.4l0,0h0.9v23.2h-0.9c-2.4,0-4.4,2-4.4,4.4v5.3
			c0,2.4,2,4.4,4.4,4.4H16c2.4,0,4.4-2,4.4-4.4v-0.9h23.2v0.9c0,2.4,2,4.4,4.4,4.4h5.3c2.4,0,4.4-2,4.4-4.4V48c0-2.4-2-4.4-4.4-4.4
			h-0.9V20.4H53.3z M47.1,10.7c0-0.5,0.4-0.9,0.9-0.9h5.3c0.5,0,0.9,0.4,0.9,0.9V16c0,0.5-0.4,0.9-0.9,0.9H48
			c-0.5,0-0.9-0.4-0.9-0.9V10.7z M9.8,16v-5.3c0-0.5,0.4-0.9,0.9-0.9l0,0H16c0.5,0,0.9,0.4,0.9,0.9l0,0V16c0,0.5-0.4,0.9-0.9,0.9
			l0,0h-5.3C10.2,16.9,9.8,16.5,9.8,16L9.8,16z M16.9,53.3c0,0.5-0.4,0.9-0.9,0.9h-5.3c-0.5,0-0.9-0.4-0.9-0.9V48
			c0-0.5,0.4-0.9,0.9-0.9H16c0.5,0,0.9,0.4,0.9,0.9V53.3z M54.3,48v5.3c0,0.5-0.4,0.9-0.9,0.9H48c-0.5,0-0.9-0.4-0.9-0.9V48
			c0-0.5,0.4-0.9,0.9-0.9h5.3C53.8,47.1,54.3,47.5,54.3,48z M48.9,43.6H48c-2.4,0-4.4,2-4.4,4.4v0.9H20.4V48c0-2.4-2-4.4-4.4-4.4
			h-0.9V20.4H16c2.4,0,4.4-2,4.4-4.4l0,0v-0.9h23.2V16c0,2.4,2,4.4,4.4,4.4h0.9V43.6z"/>
		<g>
			<defs>
				<path id="SVGID_1_" d="M33.6,23.3c-0.4-0.9-1.5-1.2-2.4-0.8c-0.3,0.2-0.6,0.4-0.8,0.8l-8.1,16c-0.4,0.9-0.1,1.9,0.8,2.3
					c0.2,0.1,0.5,0.2,0.8,0.2c0.7,0,1.3-0.4,1.6-1l1.5-3h10l1.5,3c0.5,0.9,1.5,1.2,2.4,0.7c0.8-0.4,1.1-1.4,0.8-2.2L33.6,23.3z
					 M28.8,34.3l3.2-6.4l3.3,6.4L28.8,34.3z"/>
			</defs>
			<defs>
				<path id="SVGID_2_" d="M53.3,20.4c2.4,0,4.4-2,4.4-4.4v-5.3c0-2.4-2-4.4-4.4-4.4H48c-2.4,0-4.4,2-4.4,4.4v0.9H20.4v-0.9
					c0-2.4-2-4.4-4.4-4.4c0,0,0,0,0,0h-5.3c-2.4,0-4.4,2-4.4,4.4c0,0,0,0,0,0V16c0,2.4,2,4.4,4.4,4.4l0,0h0.9v23.2h-0.9
					c-2.4,0-4.4,2-4.4,4.4v5.3c0,2.4,2,4.4,4.4,4.4H16c2.4,0,4.4-2,4.4-4.4v-0.9h23.2v0.9c0,2.4,2,4.4,4.4,4.4h5.3
					c2.4,0,4.4-2,4.4-4.4V48c0-2.4-2-4.4-4.4-4.4h-0.9V20.4H53.3z M47.1,10.7c0-0.5,0.4-0.9,0.9-0.9h5.3c0.5,0,0.9,0.4,0.9,0.9V16
					c0,0.5-0.4,0.9-0.9,0.9H48c-0.5,0-0.9-0.4-0.9-0.9V10.7z M9.8,16v-5.3c0-0.5,0.4-0.9,0.9-0.9l0,0H16c0.5,0,0.9,0.4,0.9,0.9l0,0
					V16c0,0.5-0.4,0.9-0.9,0.9l0,0h-5.3C10.2,16.9,9.8,16.5,9.8,16L9.8,16z M16.9,53.3c0,0.5-0.4,0.9-0.9,0.9h-5.3
					c-0.5,0-0.9-0.4-0.9-0.9V48c0-0.5,0.4-0.9,0.9-0.9H16c0.5,0,0.9,0.4,0.9,0.9V53.3z M54.3,48v5.3c0,0.5-0.4,0.9-0.9,0.9H48
					c-0.5,0-0.9-0.4-0.9-0.9V48c0-0.5,0.4-0.9,0.9-0.9h5.3C53.8,47.1,54.3,47.5,54.3,48z M48.9,43.6H48c-2.4,0-4.4,2-4.4,4.4v0.9
					H20.4V48c0-2.4-2-4.4-4.4-4.4h-0.9V20.4H16c2.4,0,4.4-2,4.4-4.4l0,0v-0.9h23.2V16c0,2.4,2,4.4,4.4,4.4h0.9V43.6z"/>
			</defs>
			<clipPath id="SVGID_3_">
				<use xlink:href="#SVGID_1_"  style="overflow:visible;"/>
			</clipPath>
			<clipPath id="SVGID_4_" class="st0">
				<use xlink:href="#SVGID_2_"  style="overflow:visible;"/>
			</clipPath>
			<g class="st1">
				<rect width="64" height="64"/>
			</g>
		</g>
	</g>
</g>
</svg>
