<?xml version="1.0" encoding="utf-8"?>
<svg version="1.1" id="Layer_1" xmlns="http://www.w3.org/2000/svg" x="0px" y="0px"
	 viewBox="0 0 158 158" style="enable-background:new 0 0 158 158;" xml:space="preserve">
<path d="M41,100.2c0-2.2,0.7-4,2.2-5.4c1.5-1.4,3.4-2.1,5.6-2.1c2.3,0,4.1,0.7,5.6,2.1c1.5,1.4,2.3,3.2,2.3,5.4c0,2.2-0.7,4-2.2,5.4
	c-1.5,1.4-3.4,2-5.7,2c-2.3,0-4.1-0.7-5.6-2C41.7,104.1,41,102.4,41,100.2z M41,60.6c0-2.2,0.7-4,2.2-5.4c1.5-1.4,3.4-2.1,5.6-2.1
	c2.3,0,4.1,0.7,5.6,2.1c1.5,1.4,2.3,3.2,2.3,5.4c0,2.2-0.7,4-2.2,5.4c-1.5,1.4-3.4,2-5.7,2c-2.3,0-4.1-0.7-5.6-2
	C41.7,64.6,41,62.8,41,60.6z"/>
<path d="M72.1,58.3l-6.5-3.8c2.8-4.3,4.2-8.8,4.3-13.5v-8.2h11.1v7.5c0,2.9-0.8,6-2.4,9.4C76.9,53.1,74.8,56,72.1,58.3z"/>
<path d="M91.3,78.4c0-7.4,1-14.4,2.9-21.1c2-6.7,4.8-12.6,8.7-17.7c3.8-5.2,7.9-8.7,12.4-10.7l2.7,7.5c-4.7,3.5-8.3,8.9-11,16.1
	c-2.6,7.3-3.9,15.8-3.9,25.5v1.5c0,9.8,1.3,18.3,3.9,25.6c2.6,7.3,6.3,12.8,11,16.4l-2.7,7.4c-4.4-2-8.4-5.4-12.2-10.4
	c-3.7-5-6.6-10.7-8.6-17.2c-2-6.5-3-13.3-3.2-20.4V78.4z"/>
</svg>
