<svg width="150" height="150" viewBox="0 0 150 150" fill="none" xmlns="http://www.w3.org/2000/svg">
<circle opacity="0.7" cx="75" cy="75" r="75" fill="#26A69A"/>
<path d="M68.251 98.3907C66.1885 98.3907 64.2198 97.875 62.4855 96.8907C58.4542 94.5469 56.2042 89.9532 56.2042 83.9532V68.25C56.2042 62.25 58.4073 57.6562 62.4386 55.3125C66.4697 52.9687 71.5791 53.3437 76.7822 56.3437L90.376 64.1719C95.5791 67.1719 98.4385 71.3907 98.4385 76.0782C98.4385 80.7188 95.5791 84.9844 90.376 87.9844L76.7822 95.8125C73.876 97.5469 70.9228 98.3907 68.251 98.3907ZM68.251 60.7969C67.4072 60.7969 66.6103 60.9844 66.001 61.3594C64.2198 62.3906 63.2355 64.875 63.2355 68.25V83.9532C63.2355 87.2813 64.2198 89.8125 66.001 90.7969C67.7353 91.8282 70.4072 91.4063 73.3135 89.7657L86.9072 81.9375C89.8135 80.25 91.4541 78.1407 91.4541 76.125C91.4541 74.1094 89.7666 72 86.9072 70.3125L73.3135 62.4844C71.4385 61.3594 69.7041 60.7969 68.251 60.7969Z" fill="#FAFAFA"/>
</svg>
