<?xml version="1.0" encoding="utf-8"?>
<svg version="1.1" id="Layer_1" xmlns="http://www.w3.org/2000/svg" x="0px" y="0px"
	 viewBox="0 0 32 32" style="enable-background:new 0 0 32 32;" xml:space="preserve">
<path d="M27.3,25.9l-4.5-4.5c0.7-0.8,1.2-1.7,1.6-2.7c0.8-1.9,1-4,0.6-6.1c-0.4-2-1.4-3.9-2.9-5.4c-2-2-4.6-3.1-7.4-3.1
	c-2.8,0-5.4,1.1-7.4,3.1c-1.5,1.5-2.5,3.3-2.9,5.4c-0.4,2-0.2,4.1,0.6,6.1c0.8,1.9,2.1,3.5,3.9,4.7c1.7,1.2,3.7,1.8,5.8,1.8
	c2.1,0,4.1-0.6,5.8-1.8c0.3-0.2,0.6-0.4,0.8-0.6l4.5,4.5c0.2,0.2,0.5,0.3,0.7,0.3s0.5-0.1,0.7-0.3C27.7,27,27.7,26.3,27.3,25.9z
	 M10.1,21.8c-1.4-0.9-2.5-2.3-3.1-3.8c-0.6-1.6-0.8-3.2-0.5-4.9c0.3-1.7,1.1-3.2,2.3-4.3c1.6-1.6,3.7-2.5,6-2.5c2.3,0,4.4,0.9,6,2.5
	c1.2,1.2,2,2.7,2.3,4.3c0.3,1.7,0.2,3.3-0.5,4.9c-0.6,1.6-1.7,2.9-3.1,3.8C16.7,23.7,12.9,23.7,10.1,21.8z"/>
</svg>
