<?xml version="1.0" encoding="utf-8"?>
<!-- Generator: Adobe Illustrator 24.1.1, SVG Export Plug-In . SVG Version: 6.00 Build 0)  -->
<svg version="1.1" id="Layer_1" xmlns="http://www.w3.org/2000/svg" xmlns:xlink="http://www.w3.org/1999/xlink" x="0px" y="0px"
	 viewBox="0 0 32 32" style="enable-background:new 0 0 32 32;" xml:space="preserve">
<g>
	<path d="M15.3,20.4c0.1,0.1,0.2,0.2,0.3,0.2c0.1,0.1,0.3,0.1,0.4,0.1c0.1,0,0.3,0,0.4-0.1c0.1-0.1,0.2-0.1,0.3-0.2l4.9-4.9
		c0.4-0.4,0.4-1.1,0-1.5s-1.1-0.4-1.5,0L17,17.2V5c0-0.6-0.5-1-1-1c-0.6,0-1,0.5-1,1v12.1l-3.1-3.1c-0.4-0.4-1.1-0.4-1.5,0
		s-0.4,1.1,0,1.5L15.3,20.4z"/>
	<path d="M27,21.1c-0.6,0-1,0.5-1,1c0,2.1-1.7,3.9-3.9,3.9H9.9c-2.1,0-3.9-1.7-3.9-3.9c0-0.6-0.5-1-1-1s-1,0.5-1,1
		C4,25.3,6.7,28,9.9,28h12.2c3.3,0,5.9-2.7,5.9-5.9C28,21.5,27.5,21.1,27,21.1z"/>
</g>
</svg>
