<?xml version="1.0" encoding="utf-8"?>
<!-- Generator: Adobe Illustrator 24.1.1, SVG Export Plug-In . SVG Version: 6.00 Build 0)  -->
<svg version="1.1" id="Layer_1" xmlns="http://www.w3.org/2000/svg" xmlns:xlink="http://www.w3.org/1999/xlink" x="0px" y="0px"
	 viewBox="0 0 64 64" style="enable-background:new 0 0 64 64;" xml:space="preserve">
<path d="M48,6.3H16c-5.4,0-9.8,4.4-9.8,9.8v32c0,5.4,4.4,9.8,9.8,9.8h32c5.4,0,9.8-4.4,9.8-9.8V16C57.8,10.6,53.4,6.3,48,6.3z
	 M9.8,16c0-3.4,2.8-6.3,6.3-6.3h32c3.4,0,6.3,2.8,6.3,6.3v22.4L45.8,30c-0.8-0.8-1.9-1.3-3.1-1.3c0,0,0,0,0,0
	c-1.2,0-2.3,0.5-3.1,1.3L29.3,40.2L27.1,38c-0.8-0.8-1.9-1.3-3.1-1.3c0,0,0,0,0,0c-1.2,0-2.3,0.5-3.1,1.3l-11,11
	c-0.1-0.3-0.1-0.7-0.1-1V16z M11.5,52.3l11.9-11.9c0.2-0.2,0.4-0.3,0.6-0.3h0c0.2,0,0.5,0.1,0.6,0.3l3.4,3.4c0,0,0,0,0,0s0,0,0,0
	l10.3,10.3H16C14.2,54.3,12.6,53.5,11.5,52.3z M48,54.3h-4.6L31.8,42.7L42,32.5c0.2-0.2,0.4-0.3,0.6-0.3h0c0.2,0,0.5,0.1,0.6,0.3
	l10.9,10.9V48C54.3,51.4,51.4,54.3,48,54.3z"/>
<path d="M24,26.7c-0.7,0-1.4-0.3-1.9-0.8c-1.1-1.1-1.1-2.8,0-3.9s2.8-1.1,3.9,0s1.1,2.8,0,3.9C25.4,26.5,24.7,26.7,24,26.7z
	 M24,23.3c-0.2,0-0.4,0.1-0.5,0.2c-0.3,0.3-0.3,0.8,0,1.1c0.3,0.3,0.8,0.3,1.1,0c0.3-0.3,0.3-0.8,0-1.1C24.4,23.3,24.2,23.3,24,23.3
	z"/>
</svg>
