<svg xmlns="http://www.w3.org/2000/svg" xmlns:xlink="http://www.w3.org/1999/xlink" viewBox="0 0 64 64"><defs><style>.cls-1{clip-path:url(#clip-path);}.cls-2{clip-path:url(#clip-path-2);}</style><clipPath id="clip-path"><path d="M27.31,17a1.75,1.75,0,0,0-3.12,0L16.11,33a1.75,1.75,0,0,0,.77,2.35,1.7,1.7,0,0,0,.79.19,1.74,1.74,0,0,0,1.56-1l1.51-3h10l1.51,3A1.75,1.75,0,0,0,35.39,33Zm-4.8,11.09,3.24-6.42L29,28.05Z"/></clipPath><clipPath id="clip-path-2" transform="translate(6.25 6.25)"><path class="cls-1" d="M47.08,14.17A4.42,4.42,0,0,0,51.5,9.75V4.42A4.42,4.42,0,0,0,47.08,0H41.75a4.42,4.42,0,0,0-4.42,4.42v.91H14.17V4.42A4.42,4.42,0,0,0,9.75,0H4.42A4.42,4.42,0,0,0,0,4.42V9.75a4.42,4.42,0,0,0,4.42,4.42h.91V37.33H4.42A4.42,4.42,0,0,0,0,41.75v5.33A4.42,4.42,0,0,0,4.42,51.5H9.75a4.42,4.42,0,0,0,4.42-4.42v-.91H37.33v.91a4.42,4.42,0,0,0,4.42,4.42h5.33a4.42,4.42,0,0,0,4.42-4.42V41.75a4.42,4.42,0,0,0-4.42-4.42h-.91V14.17ZM40.83,4.42a.92.92,0,0,1,.92-.92h5.33a.92.92,0,0,1,.92.92V9.75a.92.92,0,0,1-.92.92H41.75a.92.92,0,0,1-.92-.92ZM3.5,9.75V4.42a.92.92,0,0,1,.92-.92H9.75a.92.92,0,0,1,.92.92V9.75a.92.92,0,0,1-.92.92H4.42A.92.92,0,0,1,3.5,9.75Zm7.17,37.33a.92.92,0,0,1-.92.92H4.42a.92.92,0,0,1-.92-.92V41.75a.92.92,0,0,1,.92-.92H9.75a.92.92,0,0,1,.92.92ZM48,41.75v5.33a.92.92,0,0,1-.92.92H41.75a.92.92,0,0,1-.92-.92V41.75a.92.92,0,0,1,.92-.92h5.33A.92.92,0,0,1,48,41.75Zm-5.33-4.42h-.92a4.42,4.42,0,0,0-4.42,4.42v.92H14.17v-.92a4.42,4.42,0,0,0-4.42-4.42H8.83V14.17h.92a4.42,4.42,0,0,0,4.42-4.42V8.83H37.33v.92a4.42,4.42,0,0,0,4.42,4.42h.92Z"/></clipPath></defs><g id="Layer_2" data-name="Layer 2"><g id="Layer_1-2" data-name="Layer 1"><path d="M27.31,17a1.75,1.75,0,0,0-3.12,0L16.11,33a1.75,1.75,0,0,0,.77,2.35,1.7,1.7,0,0,0,.79.19,1.74,1.74,0,0,0,1.56-1l1.51-3h10l1.51,3A1.75,1.75,0,0,0,35.39,33Zm-4.8,11.09,3.24-6.42L29,28.05Z" transform="translate(6.25 6.25)"/><path d="M47.08,14.17A4.42,4.42,0,0,0,51.5,9.75V4.42A4.42,4.42,0,0,0,47.08,0H41.75a4.42,4.42,0,0,0-4.42,4.42v.91H14.17V4.42A4.42,4.42,0,0,0,9.75,0H4.42A4.42,4.42,0,0,0,0,4.42V9.75a4.42,4.42,0,0,0,4.42,4.42h.91V37.33H4.42A4.42,4.42,0,0,0,0,41.75v5.33A4.42,4.42,0,0,0,4.42,51.5H9.75a4.42,4.42,0,0,0,4.42-4.42v-.91H37.33v.91a4.42,4.42,0,0,0,4.42,4.42h5.33a4.42,4.42,0,0,0,4.42-4.42V41.75a4.42,4.42,0,0,0-4.42-4.42h-.91V14.17ZM40.83,4.42a.92.92,0,0,1,.92-.92h5.33a.92.92,0,0,1,.92.92V9.75a.92.92,0,0,1-.92.92H41.75a.92.92,0,0,1-.92-.92ZM3.5,9.75V4.42a.92.92,0,0,1,.92-.92H9.75a.92.92,0,0,1,.92.92V9.75a.92.92,0,0,1-.92.92H4.42A.92.92,0,0,1,3.5,9.75Zm7.17,37.33a.92.92,0,0,1-.92.92H4.42a.92.92,0,0,1-.92-.92V41.75a.92.92,0,0,1,.92-.92H9.75a.92.92,0,0,1,.92.92ZM48,41.75v5.33a.92.92,0,0,1-.92.92H41.75a.92.92,0,0,1-.92-.92V41.75a.92.92,0,0,1,.92-.92h5.33A.92.92,0,0,1,48,41.75Zm-5.33-4.42h-.92a4.42,4.42,0,0,0-4.42,4.42v.92H14.17v-.92a4.42,4.42,0,0,0-4.42-4.42H8.83V14.17h.92a4.42,4.42,0,0,0,4.42-4.42V8.83H37.33v.92a4.42,4.42,0,0,0,4.42,4.42h.92Z" transform="translate(6.25 6.25)"/><g class="cls-2"><rect width="64" height="64"/></g></g></g></svg>