<svg xmlns="http://www.w3.org/2000/svg" viewBox="0 0 64 64">
    <defs>
        <style>
            .cls-1{fill:none;}.cls-2{clip-path:url(#clip-path);}.cls-3{clip-path:url(#clip-path-2);}.cls-4{clip-path:url(#clip-path-3);}.cls-5{clip-path:url(#clip-path-4);}.cls-6{clip-path:url(#clip-path-5);}.cls-7{clip-path:url(#clip-path-6);}
        </style>
        <clipPath id="clip-path">
            <path d="M10.67,49.75A1.75,1.75,0,0,1,8.92,48V16a1.75,1.75,0,0,1,3.5,0V48A1.75,1.75,0,0,1,10.67,49.75Z"/>
        </clipPath>
        <clipPath id="clip-path-2">
            <path class="cls-2"
                  d="M21.33,41.75A1.75,1.75,0,0,1,19.58,40V24a1.75,1.75,0,0,1,3.5,0V40A1.75,1.75,0,0,1,21.33,41.75Z"/>
        </clipPath>
        <clipPath id="clip-path-3">
            <path class="cls-3"
                  d="M32,49.75A1.75,1.75,0,0,1,30.25,48V16a1.75,1.75,0,0,1,3.5,0V48A1.75,1.75,0,0,1,32,49.75Z"/>
        </clipPath>
        <clipPath id="clip-path-4">
            <path class="cls-4"
                  d="M42.67,57.75A1.75,1.75,0,0,1,40.92,56V8a1.75,1.75,0,0,1,3.5,0V56A1.75,1.75,0,0,1,42.67,57.75Z"/>
        </clipPath>
        <clipPath id="clip-path-5" transform="translate(0)">
            <rect class="cls-1" width="64" height="64"/>
        </clipPath>
        <clipPath id="clip-path-6" transform="translate(0)">
            <path class="cls-5"
                  d="M53.33,44.42a1.76,1.76,0,0,1-1.75-1.75V21.33a1.75,1.75,0,0,1,3.5,0V42.67A1.75,1.75,0,0,1,53.33,44.42Z"/>
        </clipPath>
    </defs>
    <g id="Layer_2">
        <g id="Layer_1-2">
            <g class="cls-6">
                <path d="M10.67,49.75A1.75,1.75,0,0,1,8.92,48V16a1.75,1.75,0,0,1,3.5,0V48A1.75,1.75,0,0,1,10.67,49.75Z"
                      transform="translate(0)"/>
                <path d="M21.33,41.75A1.75,1.75,0,0,1,19.58,40V24a1.75,1.75,0,0,1,3.5,0V40A1.75,1.75,0,0,1,21.33,41.75Z"
                      transform="translate(0)"/>
                <path d="M32,49.75A1.75,1.75,0,0,1,30.25,48V16a1.75,1.75,0,0,1,3.5,0V48A1.75,1.75,0,0,1,32,49.75Z"
                      transform="translate(0)"/>
                <path d="M42.67,57.75A1.75,1.75,0,0,1,40.92,56V8a1.75,1.75,0,0,1,3.5,0V56A1.75,1.75,0,0,1,42.67,57.75Z"
                      transform="translate(0)"/>
                <path
                    d="M53.33,44.42a1.76,1.76,0,0,1-1.75-1.75V21.33a1.75,1.75,0,0,1,3.5,0V42.67A1.75,1.75,0,0,1,53.33,44.42Z"
                    transform="translate(0)"/>
                <g class="cls-7">
                    <rect width="64" height="64"/>
                </g>
            </g>
        </g>
    </g>
</svg>